<?xml version="1.0" encoding="UTF-8" standalone="no"?>
<!-- Generator: Gravit.io -->
<svg xmlns="http://www.w3.org/2000/svg" xmlns:xlink="http://www.w3.org/1999/xlink" style="isolation:isolate" viewBox="0 0 951.5 257" width="951.5pt" height="257pt"><path d="M 16.705 0 L 934.795 0 C 944.015 0 951.5 7.485 951.5 16.705 L 951.5 240.295 C 951.5 249.515 944.015 257 934.795 257 L 16.705 257 C 7.485 257 0 249.515 0 240.295 L 0 16.705 C 0 7.485 7.485 0 16.705 0 Z" style="stroke:none;fill:#242424;stroke-miterlimit:10;"/><g><g><path d=" M 642.788 160.505 L 634.105 160.505 L 634.105 160.505 Q 631.345 160.505 630.483 157.918 L 630.483 157.918 L 629.333 152.225 L 629.333 152.225 Q 627.493 154.295 625.48 155.963 L 625.48 155.963 L 625.48 155.963 Q 623.468 157.63 621.139 158.838 L 621.139 158.838 L 621.139 158.838 Q 618.81 160.045 616.136 160.706 L 616.136 160.706 L 616.136 160.706 Q 613.463 161.368 610.358 161.368 L 610.358 161.368 L 610.358 161.368 Q 605.528 161.368 601.503 159.355 L 601.503 159.355 L 601.503 159.355 Q 597.478 157.343 594.574 153.519 L 594.574 153.519 L 594.574 153.519 Q 591.67 149.695 590.089 144.06 L 590.089 144.06 L 590.089 144.06 Q 588.508 138.425 588.508 131.18 L 588.508 131.18 L 588.508 131.18 Q 588.508 124.625 590.29 118.99 L 590.29 118.99 L 590.29 118.99 Q 592.073 113.355 595.408 109.215 L 595.408 109.215 L 595.408 109.215 Q 598.743 105.075 603.4 102.746 L 603.4 102.746 L 603.4 102.746 Q 608.058 100.418 613.865 100.418 L 613.865 100.418 L 613.865 100.418 Q 618.81 100.418 622.318 101.999 L 622.318 101.999 L 622.318 101.999 Q 625.825 103.58 628.585 106.225 L 628.585 106.225 L 628.585 75.06 L 642.788 75.06 L 642.788 160.505 L 642.788 160.505 Z  M 615.188 150.098 L 615.188 150.098 L 615.188 150.098 Q 619.615 150.098 622.72 148.258 L 622.72 148.258 L 622.72 148.258 Q 625.825 146.418 628.585 143.025 L 628.585 143.025 L 628.585 116.575 L 628.585 116.575 Q 626.17 113.643 623.324 112.435 L 623.324 112.435 L 623.324 112.435 Q 620.478 111.228 617.2 111.228 L 617.2 111.228 L 617.2 111.228 Q 613.98 111.228 611.364 112.435 L 611.364 112.435 L 611.364 112.435 Q 608.748 113.643 606.936 116.086 L 606.936 116.086 L 606.936 116.086 Q 605.125 118.53 604.148 122.296 L 604.148 122.296 L 604.148 122.296 Q 603.17 126.063 603.17 131.18 L 603.17 131.18 L 603.17 131.18 Q 603.17 136.355 604.004 139.949 L 604.004 139.949 L 604.004 139.949 Q 604.838 143.543 606.39 145.814 L 606.39 145.814 L 606.39 145.814 Q 607.943 148.085 610.185 149.091 L 610.185 149.091 L 610.185 149.091 Q 612.428 150.098 615.188 150.098 Z  M 704.37 123.245 L 704.37 160.505 L 697.988 160.505 L 697.988 160.505 Q 695.975 160.505 694.825 159.901 L 694.825 159.901 L 694.825 159.901 Q 693.675 159.298 693.1 157.458 L 693.1 157.458 L 691.835 153.26 L 691.835 153.26 Q 689.593 155.273 687.436 156.796 L 687.436 156.796 L 687.436 156.796 Q 685.28 158.32 682.98 159.355 L 682.98 159.355 L 682.98 159.355 Q 680.68 160.39 678.093 160.908 L 678.093 160.908 L 678.093 160.908 Q 675.505 161.425 672.343 161.425 L 672.343 161.425 L 672.343 161.425 Q 668.605 161.425 665.443 160.415 L 665.443 160.415 L 665.443 160.415 Q 662.28 159.406 660.009 157.387 L 660.009 157.387 L 660.009 157.387 Q 657.738 155.367 656.473 152.367 L 656.473 152.367 L 656.473 152.367 Q 655.208 149.367 655.208 145.387 L 655.208 145.387 L 655.208 145.387 Q 655.208 142.041 656.961 138.781 L 656.961 138.781 L 656.961 138.781 Q 658.715 135.521 662.798 132.896 L 662.798 132.896 L 662.798 132.896 Q 666.88 130.272 673.665 128.541 L 673.665 128.541 L 673.665 128.541 Q 680.45 126.81 690.513 126.81 L 690.513 126.81 L 690.513 123.334 L 690.513 123.334 Q 690.513 117.366 688.011 114.498 L 688.011 114.498 L 688.011 114.498 Q 685.51 111.63 680.738 111.63 L 680.738 111.63 L 680.738 111.63 Q 677.288 111.63 674.988 112.435 L 674.988 112.435 L 674.988 112.435 Q 672.688 113.24 670.991 114.246 L 670.991 114.246 L 670.991 114.246 Q 669.295 115.253 667.858 116.058 L 667.858 116.058 L 667.858 116.058 Q 666.42 116.863 664.695 116.863 L 664.695 116.863 L 664.695 116.863 Q 663.257 116.863 662.223 116.115 L 662.223 116.115 L 662.223 116.115 Q 661.188 115.368 660.555 114.275 L 660.555 114.275 L 657.968 109.733 L 657.968 109.733 Q 668.145 100.418 682.52 100.418 L 682.52 100.418 L 682.52 100.418 Q 687.695 100.418 691.749 102.114 L 691.749 102.114 L 691.749 102.114 Q 695.803 103.81 698.62 106.829 L 698.62 106.829 L 698.62 106.829 Q 701.438 109.848 702.904 114.045 L 702.904 114.045 L 702.904 114.045 Q 704.37 118.243 704.37 123.245 L 704.37 123.245 L 704.37 123.245 Z  M 676.77 151.65 L 676.77 151.65 L 676.77 151.65 Q 678.955 151.65 680.795 151.248 L 680.795 151.248 L 680.795 151.248 Q 682.635 150.846 684.274 150.043 L 684.274 150.043 L 684.274 150.043 Q 685.913 149.239 687.436 148.063 L 687.436 148.063 L 687.436 148.063 Q 688.96 146.886 690.513 145.279 L 690.513 145.279 L 690.513 135.493 L 690.513 135.493 Q 684.303 135.493 680.134 136.274 L 680.134 136.274 L 680.134 136.274 Q 675.965 137.056 673.435 138.272 L 673.435 138.272 L 673.435 138.272 Q 670.905 139.488 669.841 141.11 L 669.841 141.11 L 669.841 141.11 Q 668.778 142.732 668.778 144.643 L 668.778 144.643 L 668.778 144.643 Q 668.778 148.407 670.991 150.028 L 670.991 150.028 L 670.991 150.028 Q 673.205 151.65 676.77 151.65 Z  M 732.545 160.505 L 718.343 160.505 L 718.343 101.51 L 726.68 101.51 L 726.68 101.51 Q 728.865 101.51 729.728 102.315 L 729.728 102.315 L 729.728 102.315 Q 730.59 103.12 730.878 105.075 L 730.878 105.075 L 731.74 112.205 L 731.74 112.205 Q 734.903 106.743 739.158 103.58 L 739.158 103.58 L 739.158 103.58 Q 743.413 100.418 748.703 100.418 L 748.703 100.418 L 748.703 100.418 Q 753.073 100.418 755.948 102.43 L 755.948 102.43 L 754.108 113.068 L 754.108 113.068 Q 753.935 114.103 753.36 114.534 L 753.36 114.534 L 753.36 114.534 Q 752.785 114.965 751.808 114.965 L 751.808 114.965 L 751.808 114.965 Q 750.945 114.965 749.45 114.563 L 749.45 114.563 L 749.45 114.563 Q 747.955 114.16 745.483 114.16 L 745.483 114.16 L 745.483 114.16 Q 741.055 114.16 737.892 116.604 L 737.892 116.604 L 737.892 116.604 Q 734.73 119.048 732.545 123.763 L 732.545 123.763 L 732.545 160.505 L 732.545 160.505 Z  M 765.493 75.06 L 779.695 75.06 L 779.695 123.993 L 782.34 123.993 L 782.34 123.993 Q 783.777 123.993 784.583 123.59 L 784.583 123.59 L 784.583 123.59 Q 785.388 123.188 786.308 122.095 L 786.308 122.095 L 800.97 103.983 L 800.97 103.983 Q 801.948 102.833 803.04 102.171 L 803.04 102.171 L 803.04 102.171 Q 804.132 101.51 805.915 101.51 L 805.915 101.51 L 818.91 101.51 L 800.568 123.418 L 800.568 123.418 Q 799.59 124.625 798.555 125.631 L 798.555 125.631 L 798.555 125.631 Q 797.52 126.638 796.313 127.385 L 796.313 127.385 L 796.313 127.385 Q 797.52 128.248 798.44 129.398 L 798.44 129.398 L 798.44 129.398 Q 799.36 130.548 800.28 131.87 L 800.28 131.87 L 819.945 160.505 L 807.123 160.505 L 807.123 160.505 Q 805.455 160.505 804.305 159.93 L 804.305 159.93 L 804.305 159.93 Q 803.155 159.355 802.235 157.975 L 802.235 157.975 L 787.228 135.608 L 787.228 135.608 Q 786.365 134.285 785.503 133.883 L 785.503 133.883 L 785.503 133.883 Q 784.64 133.48 782.915 133.48 L 782.915 133.48 L 779.695 133.48 L 779.695 160.505 L 765.493 160.505 L 765.493 75.06 L 765.493 75.06 Z " fill="rgb(83,83,83)"/></g><g><g><path d=" M 262.294 150.853 C 262.582 154.128 265.204 158.298 269.747 158.298 L 272.405 158.298 C 273.435 158.298 274.279 157.454 274.279 156.424 L 274.279 98.013 L 274.268 98.013 C 274.214 97.029 273.4 96.24 272.405 96.24 L 264.169 96.24 C 263.173 96.24 262.36 97.029 262.304 98.013 L 262.294 98.013 L 262.294 102.759 C 257.248 96.544 249.292 93.964 241.313 93.964 C 223.178 93.964 208.476 108.665 208.476 126.8 C 208.476 144.936 223.177 159.638 241.313 159.638 L 241.313 159.639 C 249.292 159.639 257.986 156.544 262.293 150.845 L 262.294 150.853 Z  M 241.346 148.146 C 229.812 148.146 220.462 138.59 220.462 126.8 C 220.462 115.012 229.813 105.456 241.346 105.456 C 252.88 105.456 262.229 115.012 262.229 126.8 C 262.229 138.59 252.879 148.146 241.346 148.146 Z " fill="rgb(125,126,130)"/><path d=" M 396.481 150.853 C 396.769 154.128 399.391 158.298 403.934 158.298 L 406.592 158.298 C 407.622 158.298 408.466 157.454 408.466 156.424 L 408.466 98.013 L 408.455 98.013 C 408.401 97.029 407.587 96.24 406.592 96.24 L 398.356 96.24 C 397.36 96.24 396.546 97.029 396.491 98.013 L 396.481 98.013 L 396.481 102.759 C 391.434 96.544 383.478 93.964 375.5 93.964 C 357.365 93.964 342.664 108.665 342.664 126.8 C 342.664 144.936 357.365 159.638 375.5 159.638 L 375.5 159.639 C 383.479 159.639 392.173 156.544 396.48 150.845 L 396.481 150.853 Z  M 375.532 148.146 C 363.999 148.146 354.648 138.59 354.648 126.8 C 354.648 115.012 363.999 105.456 375.532 105.456 C 387.066 105.456 396.415 115.012 396.415 126.8 C 396.415 138.59 387.066 148.146 375.532 148.146 Z " fill="rgb(125,126,130)"/><path d=" M 546.489 150.853 C 546.777 154.128 549.399 158.298 553.942 158.298 L 556.6 158.298 C 557.63 158.298 558.475 157.454 558.475 156.424 L 558.475 98.013 L 558.463 98.013 C 558.409 97.029 557.596 96.24 556.6 96.24 L 548.364 96.24 C 547.368 96.24 546.554 97.029 546.5 98.013 L 546.489 98.013 L 546.489 102.759 C 541.443 96.544 533.487 93.964 525.509 93.964 C 507.373 93.964 492.672 108.665 492.672 126.8 C 492.672 144.936 507.373 159.638 525.509 159.638 L 525.509 159.639 C 533.487 159.639 542.182 156.544 546.488 150.845 L 546.489 150.853 Z  M 525.541 148.146 C 514.006 148.146 504.656 138.59 504.656 126.8 C 504.656 115.012 514.006 105.456 525.541 105.456 C 537.074 105.456 546.423 115.012 546.423 126.8 C 546.423 138.59 537.074 148.146 525.541 148.146 Z " fill="rgb(125,126,130)"/><path d=" M 482.26 152.861 L 482.256 122.636 L 482.256 122.636 C 482.256 105.598 471.507 94.104 454.367 94.104 C 446.184 94.104 438.698 98.794 437.108 102.899 C 436.596 99.721 434.909 96.381 429.676 96.381 L 427.009 96.381 C 425.978 96.381 425.135 97.226 425.135 98.256 L 425.135 150.998 C 425.135 151 425.135 151.003 425.135 151.007 L 425.135 156.57 L 425.135 156.672 L 425.146 156.672 C 425.2 157.654 426.014 158.443 427.01 158.443 L 432.588 158.443 L 435.246 158.443 C 435.372 158.443 435.496 158.429 435.615 158.406 C 435.67 158.395 435.72 158.373 435.773 158.359 C 435.834 158.34 435.898 158.325 435.957 158.301 C 436.03 158.27 436.097 158.229 436.165 158.192 C 436.198 158.171 436.233 158.157 436.266 158.135 C 436.348 158.082 436.423 158.019 436.496 157.954 C 436.508 157.942 436.522 157.933 436.534 157.922 C 436.616 157.844 436.69 157.757 436.757 157.665 C 436.758 157.664 436.758 157.664 436.758 157.664 C 436.964 157.381 437.089 157.04 437.11 156.672 L 437.121 156.672 L 437.121 156.569 L 437.121 152.862 L 437.121 151.888 L 437.121 122.168 C 437.121 113.018 444.54 105.599 453.691 105.599 C 462.842 105.599 470.261 113.018 470.261 122.168 L 470.269 151.009 L 470.271 150.999 C 470.271 151.024 470.275 151.051 470.275 151.078 L 470.275 156.57 L 470.275 156.673 L 470.286 156.673 C 470.341 157.654 471.154 158.444 472.15 158.444 L 477.725 158.444 L 480.386 158.444 L 480.386 158.444 C 480.513 158.444 480.636 158.429 480.755 158.406 C 480.804 158.397 480.849 158.378 480.897 158.364 C 480.964 158.344 481.034 158.328 481.098 158.302 C 481.165 158.274 481.227 158.236 481.29 158.199 C 481.329 158.177 481.37 158.161 481.407 158.137 C 481.483 158.087 481.553 158.027 481.621 157.967 C 481.639 157.951 481.658 157.939 481.675 157.923 C 481.753 157.848 481.822 157.767 481.886 157.681 C 481.891 157.675 481.896 157.67 481.901 157.663 C 482.104 157.382 482.228 157.044 482.25 156.678 C 482.25 156.675 482.251 156.673 482.251 156.673 L 482.262 156.673 L 482.262 156.57 L 482.262 152.863 L 482.26 152.861 Z " fill="rgb(125,126,130)"/><path d=" M 293.957 142.487 C 299.455 146.297 305.457 148.146 311.225 148.146 C 316.719 148.146 322.399 145.297 322.399 140.34 C 322.399 133.721 310.022 132.691 302.246 130.048 C 294.468 127.405 287.769 121.942 287.769 113.093 C 287.769 99.554 299.833 93.963 311.092 93.963 C 318.226 93.963 325.586 96.315 330.359 99.685 C 332.003 100.93 331.002 102.36 331.002 102.36 L 326.446 108.866 C 325.934 109.598 325.039 110.232 323.754 109.439 C 322.469 108.646 317.962 105.456 311.093 105.456 C 304.223 105.456 300.085 108.629 300.085 112.561 C 300.085 117.276 305.463 118.759 311.763 120.367 C 322.741 123.326 334.716 126.883 334.716 140.341 C 334.716 152.27 323.558 159.642 311.227 159.642 C 301.881 159.642 293.925 156.978 287.252 152.081 C 285.861 150.69 286.832 149.398 286.832 149.398 L 291.365 142.925 C 292.285 141.713 293.448 142.136 293.957 142.487 Z " fill="rgb(125,126,130)"/></g><g><clipPath id="_clipPath_dYGewTIR1P64RgK8oezzzUyh2Tv5h6gS"><path d=" M 156.938 100.586 C 156.938 112.965 146.904 123.001 134.526 123.001 C 122.148 123.001 112.114 112.965 112.114 100.586 C 112.114 88.21 122.148 78.174 134.526 78.174 C 146.904 78.174 156.938 88.21 156.938 100.586 Z  M 105.412 128.605 C 93.034 128.605 83 138.637 83 151.015 C 83 163.392 93.034 173.426 105.412 173.426 C 117.79 173.426 127.825 163.392 127.825 151.015 C 127.825 138.636 117.79 128.605 105.412 128.605 Z  M 163.64 128.601 C 151.262 128.601 141.228 138.636 141.228 151.015 C 141.228 163.392 151.262 173.426 163.64 173.426 C 176.018 173.426 186.052 163.392 186.052 151.015 C 186.052 138.636 176.018 128.601 163.64 128.601 Z " fill-rule="evenodd" fill="rgb(255,255,255)"/></clipPath><g clip-path="url(#_clipPath_dYGewTIR1P64RgK8oezzzUyh2Tv5h6gS)"><radialGradient id="_rgradient_1" fx="0.5000028800567141" fy="0.49999401855575176" cx="0.5000028800567141" cy="0.49999401855575176" r="1" gradientTransform="matrix(112.845,0,0,112.849,78.103,77.174)" gradientUnits="userSpaceOnUse"><stop offset="0%" stop-opacity="1" style="stop-color:rgb(252,183,19)"/><stop offset="60%" stop-opacity="1" style="stop-color:rgb(239,93,141)"/><stop offset="99.91%" stop-opacity="1" style="stop-color:rgb(239,85,85)"/></radialGradient><path d=" M 134.526 77.174 C 165.689 77.174 190.948 102.439 190.948 133.602 C 190.948 164.762 165.688 190.022 134.526 190.022 C 103.364 190.022 78.103 164.762 78.103 133.602 C 78.103 102.439 103.365 77.174 134.526 77.174 Z " fill="url(#_rgradient_1)"/></g></g></g></g></svg>